<svg xmlns="http://www.w3.org/2000/svg" xmlns:xlink="http://www.w3.org/1999/xlink" width="64" height="64" viewBox="0 0 64 64"><g><g><line x1="8" x2="8" y1="20" y2="56" stroke="#000" stroke-width="1"/><line x1="8" x2="44" y1="56" y2="56" stroke="#000" stroke-width="1"/><line x1="8" x2="12" y1="20" y2="20" stroke="#000" stroke-width="1"/><line x1="44" x2="44" y1="56" y2="52" stroke="#000" stroke-width="1"/></g><g><circle cx="52" cy="12" r="4" fill="none" stroke="#000" stroke-width="1" class="accent-f"/><circle cx="52" cy="44" r="4" fill="none" stroke="#000" stroke-width="1" class="accent-f"/><circle cx="20" cy="12" r="4" fill="none" stroke="#000" stroke-width="1" class="accent-f"/><circle cx="20" cy="44" r="4" fill="none" stroke="#000" stroke-width="1" class="accent-f"/><line x1="20" x2="20" y1="16" y2="24" stroke="#000" stroke-width="1"/><line x1="24" x2="32" y1="12" y2="12" stroke="#000" stroke-width="1"/><line x1="48" x2="40" y1="12" y2="12" stroke="#000" stroke-width="1"/><line x1="52" x2="52" y1="16" y2="24" stroke="#000" stroke-width="1"/><line x1="20" x2="20" y1="40" y2="32" stroke="#000" stroke-width="1"/><line x1="24" x2="32" y1="44" y2="44" stroke="#000" stroke-width="1"/><line x1="48" x2="40" y1="44" y2="44" stroke="#000" stroke-width="1"/><line x1="52" x2="52" y1="40" y2="32" stroke="#000" stroke-width="1"/></g><g><line x1="36" x2="36" y1="8" y2="48" stroke="#000" stroke-width="1"/><line x1="16" x2="56" y1="28" y2="28" stroke="#000" stroke-width="1"/></g></g></svg>